<mxfile host="65bd71144e">
    <diagram id="JXWKTxL3_nK4k4YYtHSP" name="Page-1">
        <mxGraphModel dx="1130" dy="779" grid="1" gridSize="10" guides="1" tooltips="1" connect="1" arrows="1" fold="1" page="1" pageScale="1" pageWidth="850" pageHeight="1100" math="0" shadow="0">
            <root>
                <mxCell id="0"/>
                <mxCell id="1" parent="0"/>
                <mxCell id="2" value="Configure Preparation System" style="strokeWidth=1;shadow=0;dashed=0;align=center;html=1;shape=mxgraph.mockup.containers.window;align=left;verticalAlign=top;spacingLeft=8;strokeColor2=#008cff;strokeColor3=#c4c4c4;fontColor=#666666;mainText=;fontSize=17;labelBackgroundColor=none;whiteSpace=wrap;" parent="1" vertex="1">
                    <mxGeometry x="50" y="90" width="610" height="570" as="geometry"/>
                </mxCell>
                <mxCell id="3" value="Confirm" style="strokeWidth=1;shadow=0;dashed=0;align=center;html=1;shape=mxgraph.mockup.buttons.button;strokeColor=#2D7600;fontColor=#ffffff;mainText=;buttonStyle=round;fontSize=17;fontStyle=1;fillColor=#60a917;whiteSpace=wrap;" parent="1" vertex="1">
                    <mxGeometry x="215" y="580" width="280" height="50" as="geometry"/>
                </mxCell>
                <mxCell id="5" value="Upper bound for absolut outlier detection:" style="text;html=1;strokeColor=none;fillColor=none;align=left;verticalAlign=middle;whiteSpace=wrap;rounded=0;" parent="1" vertex="1">
                    <mxGeometry x="81" y="226" width="240" height="30" as="geometry"/>
                </mxCell>
                <mxCell id="6" value="&lt;i&gt;&lt;font&gt;10000&lt;/font&gt;&lt;/i&gt;" style="rounded=0;whiteSpace=wrap;html=1;fontColor=#000000;" parent="1" vertex="1">
                    <mxGeometry x="351" y="233.5" width="250" height="15" as="geometry"/>
                </mxCell>
                <mxCell id="7" value="Lower bound for absolut outlier detection:" style="text;html=1;strokeColor=none;fillColor=none;align=left;verticalAlign=middle;whiteSpace=wrap;rounded=0;" parent="1" vertex="1">
                    <mxGeometry x="81" y="266" width="230" height="30" as="geometry"/>
                </mxCell>
                <mxCell id="8" value="&lt;i&gt;&lt;font&gt;100&lt;/font&gt;&lt;/i&gt;" style="rounded=0;whiteSpace=wrap;html=1;fontColor=#000000;" parent="1" vertex="1">
                    <mxGeometry x="351" y="273.5" width="250" height="15" as="geometry"/>
                </mxCell>
                <mxCell id="9" value="Features to extract:" style="text;html=1;strokeColor=none;fillColor=none;align=left;verticalAlign=middle;whiteSpace=wrap;rounded=0;" parent="1" vertex="1">
                    <mxGeometry x="81" y="306" width="240" height="30" as="geometry"/>
                </mxCell>
                <mxCell id="13" value="Production system IP address :" style="text;html=1;strokeColor=none;fillColor=none;align=left;verticalAlign=middle;whiteSpace=wrap;rounded=0;" parent="1" vertex="1">
                    <mxGeometry x="81" y="486.5" width="210" height="30" as="geometry"/>
                </mxCell>
                <mxCell id="14" value="&lt;i style=&quot;border-color: var(--border-color);&quot;&gt;&lt;font style=&quot;border-color: var(--border-color);&quot;&gt;192.168.1.12&lt;/font&gt;&lt;/i&gt;" style="rounded=0;whiteSpace=wrap;html=1;fontColor=#000000;" parent="1" vertex="1">
                    <mxGeometry x="351" y="494" width="250" height="15" as="geometry"/>
                </mxCell>
                <mxCell id="15" value="Segregation system IP address :" style="text;html=1;strokeColor=none;fillColor=none;align=left;verticalAlign=middle;whiteSpace=wrap;rounded=0;" parent="1" vertex="1">
                    <mxGeometry x="81" y="526.5" width="210" height="30" as="geometry"/>
                </mxCell>
                <mxCell id="16" value="&lt;i style=&quot;border-color: var(--border-color);&quot;&gt;&lt;font style=&quot;border-color: var(--border-color);&quot;&gt;192.168.1.14&lt;/font&gt;&lt;/i&gt;" style="rounded=0;whiteSpace=wrap;html=1;fontColor=#000000;" parent="1" vertex="1">
                    <mxGeometry x="351" y="534" width="250" height="15" as="geometry"/>
                </mxCell>
                <mxCell id="18" value="" style="strokeWidth=1;shadow=0;dashed=0;align=center;html=1;shape=mxgraph.mockup.forms.rrect;rSize=0;strokeColor=#000000;fillColor=#ffffff;recursiveResize=0;" parent="1" vertex="1">
                    <mxGeometry x="351" y="306" width="250" height="170" as="geometry"/>
                </mxCell>
                <mxCell id="20" value="&lt;i style=&quot;border-color: var(--border-color); color: rgb(0, 0, 0); font-size: 12px; text-align: center;&quot;&gt;Median accelerationTimeSeries&lt;/i&gt;" style="strokeWidth=1;shadow=0;dashed=0;align=center;html=1;shape=mxgraph.mockup.forms.rrect;rSize=0;fillColor=#eeeeee;strokeColor=#999999;gradientColor=#cccccc;align=left;spacingLeft=4;fontSize=17;fontColor=#666666;labelPosition=right;" parent="18" vertex="1">
                    <mxGeometry x="8" y="40" width="15" height="15" as="geometry"/>
                </mxCell>
                <mxCell id="31" value="&lt;i style=&quot;border-color: var(--border-color); color: rgb(0, 0, 0); font-size: 12px; text-align: center;&quot;&gt;rentalProfile&lt;/i&gt;" style="strokeWidth=1;shadow=0;dashed=0;align=center;html=1;shape=mxgraph.mockup.forms.rrect;rSize=0;fillColor=#eeeeee;strokeColor=#999999;gradientColor=#cccccc;align=left;spacingLeft=4;fontSize=17;fontColor=#666666;labelPosition=right;" parent="18" vertex="1">
                    <mxGeometry x="8" y="140" width="15" height="15" as="geometry"/>
                </mxCell>
                <mxCell id="21" value="&lt;i style=&quot;border-color: var(--border-color); color: rgb(0, 0, 0); font-size: 12px; text-align: center;&quot;&gt;Maximum accelerationTimeSeries&lt;/i&gt;" style="strokeWidth=1;shadow=0;dashed=0;align=center;html=1;shape=mxgraph.mockup.forms.checkbox;rSize=0;resizable=0;fillColor=#aaaaaa;strokeColor=#444444;gradientColor=#666666;align=left;spacingLeft=4;fontSize=17;fontColor=#008cff;labelPosition=right;" parent="18" vertex="1">
                    <mxGeometry x="8" y="10" width="15" height="15" as="geometry"/>
                </mxCell>
                <mxCell id="32" value="&lt;i style=&quot;border-color: var(--border-color); color: rgb(0, 0, 0); font-size: 12px; text-align: center;&quot;&gt;drivingDuration&lt;/i&gt;" style="strokeWidth=1;shadow=0;dashed=0;align=center;html=1;shape=mxgraph.mockup.forms.checkbox;rSize=0;resizable=0;fillColor=#aaaaaa;strokeColor=#444444;gradientColor=#666666;align=left;spacingLeft=4;fontSize=17;fontColor=#008cff;labelPosition=right;" parent="18" vertex="1">
                    <mxGeometry x="8" y="65" width="15" height="15" as="geometry"/>
                </mxCell>
                <mxCell id="33" value="&lt;i style=&quot;border-color: var(--border-color); color: rgb(0, 0, 0); font-size: 12px; text-align: center;&quot;&gt;pathLength&lt;/i&gt;" style="strokeWidth=1;shadow=0;dashed=0;align=center;html=1;shape=mxgraph.mockup.forms.checkbox;rSize=0;resizable=0;fillColor=#aaaaaa;strokeColor=#444444;gradientColor=#666666;align=left;spacingLeft=4;fontSize=17;fontColor=#008cff;labelPosition=right;" parent="18" vertex="1">
                    <mxGeometry x="8" y="87.5" width="15" height="15" as="geometry"/>
                </mxCell>
                <mxCell id="34" value="&lt;i style=&quot;border-color: var(--border-color); color: rgb(0, 0, 0); font-size: 12px; text-align: center;&quot;&gt;difference initial/final photos&lt;/i&gt;" style="strokeWidth=1;shadow=0;dashed=0;align=center;html=1;shape=mxgraph.mockup.forms.checkbox;rSize=0;resizable=0;fillColor=#aaaaaa;strokeColor=#444444;gradientColor=#666666;align=left;spacingLeft=4;fontSize=17;fontColor=#008cff;labelPosition=right;" parent="18" vertex="1">
                    <mxGeometry x="8" y="115" width="15" height="15" as="geometry"/>
                </mxCell>
                <mxCell id="39" value="" style="group" parent="1" vertex="1" connectable="0">
                    <mxGeometry x="210" y="140" width="300" height="60" as="geometry"/>
                </mxCell>
                <mxCell id="40" value="Number of Cars" style="whiteSpace=wrap;html=1;" parent="39" vertex="1">
                    <mxGeometry width="100" height="30" as="geometry"/>
                </mxCell>
                <mxCell id="41" value="Cars' Typology" style="whiteSpace=wrap;html=1;" parent="39" vertex="1">
                    <mxGeometry x="100" width="100" height="30" as="geometry"/>
                </mxCell>
                <mxCell id="42" value="Mean Age" style="whiteSpace=wrap;html=1;" parent="39" vertex="1">
                    <mxGeometry x="200" width="100" height="30" as="geometry"/>
                </mxCell>
                <mxCell id="43" value="300" style="whiteSpace=wrap;html=1;" parent="39" vertex="1">
                    <mxGeometry y="30" width="100" height="30" as="geometry"/>
                </mxCell>
                <mxCell id="44" value="low" style="whiteSpace=wrap;html=1;" parent="39" vertex="1">
                    <mxGeometry x="100" y="30" width="100" height="30" as="geometry"/>
                </mxCell>
                <mxCell id="45" value="31" style="whiteSpace=wrap;html=1;" parent="39" vertex="1">
                    <mxGeometry x="200" y="30" width="100" height="30" as="geometry"/>
                </mxCell>
                <mxCell id="46" value="&lt;b&gt;&lt;font style=&quot;font-size: 15px;&quot;&gt;Criteria&lt;/font&gt;&lt;/b&gt;" style="text;html=1;align=center;verticalAlign=middle;resizable=0;points=[];autosize=1;strokeColor=none;fillColor=none;" parent="1" vertex="1">
                    <mxGeometry x="120" y="155" width="80" height="30" as="geometry"/>
                </mxCell>
            </root>
        </mxGraphModel>
    </diagram>
</mxfile>